Trial010_GRF
version=1
nRows=24
nColumns=19
inDegrees=yes
endheader
time	ground_force_vx	ground_force_vy	ground_force_vz	ground_force_px	ground_force_py	ground_force_pz	1_ground_force_vx	1_ground_force_vy	1_ground_force_vz	1_ground_force_px	1_ground_force_py	1_ground_force_pz	ground_torque_x	ground_torque_y	ground_torque_z	1_ground_torque_x	1_ground_torque_y	1_ground_torque_z
      1.76400000	    400.61485464	    838.63920047	     -5.89127406	      0.65496962	      0.00000000	      0.29075827	     -1.38369989	     -3.10958057	     -0.06101282	      1.95952366	      0.00000000	      0.19418333	   -249.99390202	    107.46091962	    549.37367429	      0.51142912	     -0.35678443	     -6.09737098
      1.76800000	    407.11005997	    849.01585248	     -6.02417684	      0.65505810	      0.00000000	      0.28992077	     -1.02592050	     -4.39420494	     -0.17012851	      1.70593016	      0.00000000	      0.19781476	   -252.35679717	    109.02618864	    556.24659428	      0.85160090	      0.01173961	     -7.49913159
      1.77200000	    413.95922040	    859.86288343	     -6.29736864	      0.65512337	      0.00000000	      0.28910890	     -0.70699952	     -5.17995639	     -0.27371859	      1.56096306	      0.00000000	      0.20673382	   -254.87232995	    110.76371879	    563.41178208	      1.08239019	      0.36549280	     -8.08126130
      1.77600000	    421.17122018	    871.15722472	     -6.71667396	      0.65516114	      0.00000000	      0.28833229	     -0.43850328	     -5.48436512	     -0.37135871	      1.43824339	      0.00000000	      0.21638452	   -257.54188858	    112.68443630	    570.84977306	      1.20768647	      0.70130015	     -7.87010576
      1.78000000	    428.74996313	    882.86695510	     -7.28772328	      0.65516729	      0.00000000	      0.28760083	     -0.23033990	     -5.33333038	     -0.46251123	      1.30263894	      0.00000000	      0.22744626	   -260.36495662	    114.79842644	    578.53521049	      1.23316427	      1.01591633	     -6.90700743
      1.78400000	    436.69379296	    894.95098626	     -8.01577462	      0.65513798	      0.00000000	      0.28692444	     -0.09054686	     -4.76074917	     -0.54651478	      1.11960992	      0.00000000	      0.24209670	   -263.33892944	    117.11460481	    586.43671296	      1.16618063	      1.30601557	     -5.24798199
      1.78800000	    444.99493813	    907.35884564	     -8.90550634	      0.65506974	      0.00000000	      0.28631289	     -0.02510805	     -3.80805202	     -0.62257852	      0.82373771	      0.00000000	      0.26487329	   -266.45893559	    119.64036085	    594.51681266	      1.01565345	      1.56818889	     -2.96320998
      1.79200000	    453.63899058	    920.03056235	     -9.96078581	      0.65495950	      0.00000000	      0.28577564	     -0.03780250	     -2.52364988	     -0.68978169	      0.23272106	      0.00000000	      0.30400723	   -269.71766565	    122.38117967	    602.73196744	      0.79192240	      1.79895072	     -0.13633979
      1.79600000	    462.60442908	    932.89666237	    -11.18441928	      0.65480469	      0.00000000	      0.28532162	     -0.13008688	     -0.96229426	     -0.74707937	     -1.02054148	      0.00000000	      0.13661494	   -273.10521168	    125.34024980	    611.03264942	      0.50659350	      1.99475719	      3.13640353
      1.80000000	    471.86219905	    945.87827880	    -12.57788824	      0.65460325	      0.00000000	      0.28495910	     -0.30101383	      0.81564824	     -0.79331476	      5.71003031	      0.00000000	      0.76090657	   -276.60892092	    128.51806447	    619.36351221	      0.17236851	      2.15203772	      6.74731030
      1.80400000	    481.37536168	    958.88738296	    -14.14107781	      0.65435366	      0.00000000	      0.28469554	     -0.54718818	      2.74500663	     -0.82723850	      3.76812883	      0.00000000	      0.12843316	   -280.21326778	    131.91202525	    627.66363870	     -0.19714026	      2.26724119	     10.57848670
      1.80800000	    491.09882578	    971.82714118	    -15.87200260	      0.65405500	      0.00000000	      0.28453751	     -0.86276300	      4.75670205	     -0.84753516	      3.04408915	      0.00000000	      0.12857186	   -283.89974833	    135.51605683	    635.86687058	     -0.58760927	      2.33689765	     14.50337084
      1.81200000	    500.97917639	    984.59240137	    -17.76653603	      0.65370689	      0.00000000	      0.28449058	     -1.23947752	      6.77873066	     -0.85285691	      2.71663642	      0.00000000	      0.13942991	   -287.64680165	    139.32024274	    643.90221980	     -0.98421666	      2.35769571	     18.38847107
      1.81600000	    510.95461384	    997.07031149	    -19.81814962	      0.65330954	      0.00000000	      0.28455929	     -1.66673869	      8.73723310	     -0.84186403	      2.53371449	      0.00000000	      0.14742381	   -291.42976246	    143.31049205	    651.69436142	     -1.37186855	      2.32657536	     22.09533088
      1.82000000	    520.95501660	   1009.14107043	    -22.01766939	      0.65286368	      0.00000000	      0.28474706	     -2.13174802	     10.55765040	     -0.81327206	      2.41805311	      0.00000000	      0.15289773	   -295.22084977	    147.46824787	    659.16420562	     -1.73543822	      2.24083552	     25.48272201
      1.82400000	    530.90214005	   1020.67880905	    -24.35305813	      0.65237057	      0.00000000	      0.28505626	     -2.61967531	     12.16596423	     -0.76590463	      2.33883788	      0.00000000	      0.15663150	   -298.98919557	    151.77024925	    666.22954522	     -2.06001769	      2.09825453	     28.40906358
      1.82800000	    540.70996156	   1031.55259714	    -26.80923272	      0.65183197	      0.00000000	      0.28548815	     -3.11388004	     13.49001836	     -0.69875128	      2.28142216	      0.00000000	      0.15914250	   -302.70091808	    156.18835832	    672.80577370	     -2.33118078	      1.89722170	     30.73505991
      1.83200000	    550.28518040	   1041.62756953	    -29.36792727	      0.65125007	      0.00000000	      0.28604296	     -3.59618136	     14.46091512	     -0.61102900	      2.23791883	      0.00000000	      0.16074337	   -306.31924331	    160.68946488	    678.80666695	     -2.53525649	      1.63687700	     32.32654388
      1.83600000	    559.52787794	   1050.76616304	    -32.00761283	      0.65062746	      0.00000000	      0.28671987	     -4.04717649	     15.01447832	     -0.50224634	      2.20363477	      0.00000000	      0.16161496	   -309.80467870	    165.23548065	    684.14522146	     -2.65961114	      1.31725575	     33.05750590
      1.84000000	    568.33234154	   1058.82945434	    -34.70348488	      0.64996709	      0.00000000	      0.28751715	     -4.44660689	     15.09277080	     -0.37226826	      2.17549370	      0.00000000	      0.16184800	   -313.11524205	    169.78343447	    688.73454076	     -2.69293680	      0.93943415	     32.81328098
      1.84400000	    576.58805179	   1065.67858720	    -37.42752909	      0.64927225	      0.00000000	      0.28843214	     -4.77377076	     14.64565093	     -0.22138029	      2.15121569	      0.00000000	      0.16146172	   -316.20674838	    174.28567918	    692.48876125	     -2.62554357	      0.50567153	     31.49385822
      1.84800000	    584.18082990	   1071.17627663	    -40.14867518	      0.64854648	      0.00000000	      0.28946139	     -5.00797924	     13.63234896	     -0.05034994	      2.12875360	      0.00000000	      0.16040808	   -319.03315705	    178.69021869	    695.32400832	     -2.44965182	      0.01954433	     29.01726861
      1.85200000	    590.99413817	   1075.18837549	    -42.83304672	      0.64779355	      0.00000000	      0.29060070	     -5.12905282	     12.02303984	      0.13951665	      2.10563343	      0.00000000	      0.15858038	   -321.54698001	    182.94116203	    697.15937248	     -2.15968054	     -0.51393326	     25.32299820
      1.85600000	    596.91052238	   1077.58548753	    -45.44431296	      0.64701743	      0.00000000	      0.29184520	     -5.11785326	      9.80038548	      0.34632483	      2.07748889	      0.00000000	      0.15594326	   -323.69975134	    186.97930792	    697.91789497	     -1.75252677	     -1.08820750	     20.37536504
